<svg id="Layer_1" data-name="Layer 1" xmlns="http://www.w3.org/2000/svg" viewBox="0 0 512 512"><defs><style>.cls-1{fill:#1d1d1b;}.cls-2{fill:#fff;}</style></defs><circle class="cls-1" cx="256" cy="256" r="256"/><path class="cls-2" d="M156.67,348V192.64h-63V168.83H246.53v23.81h-63V348Z"/><path class="cls-2" d="M269.31,348V168.83h77.31q17.92,0,30.85,5.89a48.11,48.11,0,0,1,20.23,16.51q7.29,10.64,7.29,25a40.2,40.2,0,0,1-6.91,23,44.49,44.49,0,0,1-18.43,15.62q14.84,5.63,23.42,16.51a39.93,39.93,0,0,1,8.58,25.47q0,15.36-7.55,27t-21.51,17.92Q368.64,348,350,348Zm26.88-103.17h48.64q15.36,0,24.45-7.16t9.09-19.46q0-12.28-9.09-19.46t-24.45-7.16H296.19Zm0,80.39h52q16.38,0,26.37-7.94t10-21.5q0-13.31-10-21.38t-26.37-8.06h-52Z"/></svg>